<svg xmlns="http://www.w3.org/2000/svg" width="1440" height="900" viewBox="0 0 1440 900" role="img" aria-labelledby="title desc">
  <title id="title">Prévia da interface do AdCreative AI</title>
  <desc id="desc">Tela principal com formulário de produto, direção visual e painel de resultado.</desc>
  <defs>
    <linearGradient id="bg" x1="0" y1="0" x2="1" y2="1"><stop stop-color="#f6f5f0"/><stop offset="1" stop-color="#e9e8e1"/></linearGradient>
    <linearGradient id="hero" x1="0" y1="0" x2="1" y2="1"><stop stop-color="#252521"/><stop offset=".55" stop-color="#121210"/><stop offset="1" stop-color="#748800"/></linearGradient>
    <filter id="shadow"><feDropShadow dx="0" dy="12" stdDeviation="18" flood-opacity=".12"/></filter>
  </defs>
  <rect width="1440" height="900" fill="url(#bg)"/>
  <rect width="1440" height="72" fill="#171714"/>
  <rect x="54" y="18" width="36" height="36" rx="11" fill="#d8ff3e"/>
  <path d="M72 27l2.3 6.7L81 36l-6.7 2.3L72 45l-2.3-6.7L63 36l6.7-2.3z" fill="#171714"/>
  <text x="104" y="35" font-family="Arial,sans-serif" font-size="15" font-weight="700" fill="white">AdCreative AI</text>
  <text x="104" y="51" font-family="Arial,sans-serif" font-size="8" letter-spacing="2" fill="#777770">CREATIVE COMMAND CENTER</text>
  <g transform="translate(550 15)">
    <rect width="460" height="42" rx="12" fill="#22221e"/>
    <rect x="4" y="4" width="106" height="34" rx="9" fill="white"/>
    <text x="27" y="26" font-family="Arial" font-size="11" font-weight="700" fill="#171714">Post</text><text x="70" y="26" font-family="Arial" font-size="8" fill="#999">1:1</text>
    <text x="136" y="26" font-family="Arial" font-size="11" fill="#aaa">Stories</text><text x="194" y="26" font-family="Arial" font-size="8" fill="#666">9:16</text>
    <text x="237" y="26" font-family="Arial" font-size="11" fill="#aaa">Banner web</text><text x="318" y="26" font-family="Arial" font-size="8" fill="#666">144:41</text>
    <text x="354" y="26" font-family="Arial" font-size="11" fill="#aaa">Mobile</text><text x="403" y="26" font-family="Arial" font-size="8" fill="#666">3.2:1</text>
  </g>
  <rect x="1240" y="18" width="148" height="36" rx="11" fill="#22221e" stroke="#383833"/>
  <text x="1270" y="41" font-family="Arial" font-size="11" font-weight="700" fill="white">⚙  Configurações</text>
  <text x="54" y="117" font-family="Arial" font-size="9" font-weight="700" letter-spacing="2" fill="#667300">✦  ESTÚDIO DE CRIAÇÃO INTELIGENTE</text>
  <text x="54" y="161" font-family="Arial" font-size="37" font-weight="700" letter-spacing="-1" fill="#171714">Do produto ao anúncio pronto para vender.</text>
  <text x="54" y="190" font-family="Arial" font-size="13" fill="#666">Importe os dados, defina a direção visual e gere uma campanha completa.</text>
  <rect x="1170" y="112" width="218" height="68" rx="14" fill="white" stroke="#ddd"/>
  <text x="1186" y="137" font-family="Arial" font-size="11" fill="#777">Preparação</text><text x="1355" y="137" font-family="Arial" font-size="11" font-weight="700">3/4</text>
  <rect x="1186" y="151" width="186" height="6" rx="3" fill="#eee"/><rect x="1186" y="151" width="140" height="6" rx="3" fill="#9fc300"/>
  <line x1="54" y1="216" x2="1388" y2="216" stroke="#d2d1cb"/>
  <g filter="url(#shadow)">
    <rect x="54" y="247" width="745" height="390" rx="20" fill="white"/>
    <rect x="54" y="247" width="745" height="77" rx="20" fill="white"/><line x1="54" y1="324" x2="799" y2="324" stroke="#eee"/>
    <rect x="76" y="267" width="38" height="38" rx="12" fill="#171714"/><text x="88" y="291" font-family="Arial" font-size="11" font-weight="700" fill="#d8ff3e">01</text>
    <text x="128" y="283" font-family="Arial" font-size="16" font-weight="700">Produto</text><text x="128" y="301" font-family="Arial" font-size="11" fill="#777">Importe por link ou preencha manualmente.</text>
    <rect x="76" y="346" width="701" height="269" rx="16" fill="#fafaf8" stroke="#e5e5e1"/>
    <text x="96" y="374" font-family="Arial" font-size="12" font-weight="700">Produto 1</text>
    <text x="96" y="405" font-family="Arial" font-size="8" font-weight="700" letter-spacing="1.2" fill="#777">IMAGEM DO PRODUTO *</text>
    <rect x="96" y="417" width="174" height="153" rx="13" fill="white" stroke="#bbb" stroke-dasharray="5 5"/>
    <rect x="158" y="454" width="42" height="42" rx="12" fill="#f1f1ef"/><path d="M169 486l9-10 7 7 5-5 7 8z" fill="#777"/><circle cx="188" cy="466" r="4" fill="#777"/>
    <text x="140" y="517" font-family="Arial" font-size="10" font-weight="700" fill="#555">Enviar imagem</text>
    <text x="293" y="405" font-family="Arial" font-size="8" font-weight="700" letter-spacing="1.2" fill="#777">LINK DO PRODUTO</text>
    <rect x="293" y="417" width="415" height="42" rx="11" fill="white" stroke="#ddd"/><text x="310" y="442" font-family="Arial" font-size="10" fill="#aaa">https://loja.com/produto</text><rect x="717" y="417" width="42" height="42" rx="11" fill="#171714"/><text x="730" y="443" font-family="Arial" font-size="16" fill="white">⚡</text>
    <text x="293" y="482" font-family="Arial" font-size="8" font-weight="700" letter-spacing="1.2" fill="#777">NOME DO PRODUTO *</text>
    <rect x="293" y="494" width="466" height="42" rx="11" fill="white" stroke="#ddd"/><text x="310" y="519" font-family="Arial" font-size="10" fill="#aaa">Liquidificador profissional 1,5 L</text>
    <text x="293" y="559" font-family="Arial" font-size="8" font-weight="700" letter-spacing="1.2" fill="#777">PREÇO</text><text x="534" y="559" font-family="Arial" font-size="8" font-weight="700" letter-spacing="1.2" fill="#777">SELO</text>
    <rect x="293" y="571" width="224" height="30" rx="9" fill="white" stroke="#ddd"/><rect x="534" y="571" width="225" height="30" rx="9" fill="white" stroke="#ddd"/>
  </g>
  <g filter="url(#shadow)">
    <rect x="823" y="247" width="565" height="563" rx="20" fill="#171714"/>
    <text x="848" y="278" font-family="Arial" font-size="8" font-weight="700" letter-spacing="1.8" fill="#888">03 · RESULTADO</text><text x="848" y="300" font-family="Arial" font-size="13" font-weight="700" fill="white">Post</text><text x="1300" y="289" font-family="Arial" font-size="10" fill="#777">1080 × 1080</text>
    <rect x="843" y="319" width="525" height="430" rx="16" fill="url(#hero)" stroke="#333"/>
    <circle cx="1105" cy="512" r="130" fill="#d8ff3e" opacity=".08"/>
    <rect x="1014" y="414" width="182" height="220" rx="24" fill="#b8b8b0"/><rect x="1032" y="435" width="146" height="92" rx="11" fill="#2d2d2b"/><rect x="1050" y="548" width="110" height="18" rx="9" fill="#777"/><circle cx="1105" cy="591" r="23" fill="#444"/>
    <text x="879" y="382" font-family="Arial" font-size="10" font-weight="700" letter-spacing="2" fill="#d8ff3e">PERFORMANCE PROFISSIONAL</text>
    <text x="879" y="418" font-family="Arial" font-size="28" font-weight="700" fill="white">Potência que</text><text x="879" y="449" font-family="Arial" font-size="28" font-weight="700" fill="white">acelera resultados.</text>
    <text x="879" y="484" font-family="Arial" font-size="11" fill="#aaa">Mais produtividade · Menos ruído</text>
    <rect x="879" y="658" width="150" height="38" rx="10" fill="#d8ff3e"/><text x="902" y="682" font-family="Arial" font-size="11" font-weight="700" fill="#171714">SOLICITE AGORA</text>
    <rect x="843" y="765" width="164" height="30" rx="8" fill="#22221e" stroke="#333"/><rect x="1015" y="765" width="164" height="30" rx="8" fill="#22221e" stroke="#333"/><rect x="1187" y="765" width="181" height="30" rx="8" fill="#22221e" stroke="#333"/>
    <text x="895" y="785" font-family="Arial" font-size="10" fill="#ddd">↓  Baixar</text><text x="1054" y="785" font-family="Arial" font-size="10" fill="#ddd">↗  Compartilhar</text><text x="1244" y="785" font-family="Arial" font-size="10" fill="#ddd">↻  Regerar</text>
  </g>
  <rect x="54" y="662" width="745" height="148" rx="20" fill="white" stroke="#e0e0dc"/>
  <rect x="76" y="683" width="38" height="38" rx="12" fill="#171714"/><text x="88" y="707" font-family="Arial" font-size="11" font-weight="700" fill="#d8ff3e">02</text>
  <text x="128" y="699" font-family="Arial" font-size="16" font-weight="700">Direção visual</text><text x="128" y="717" font-family="Arial" font-size="11" fill="#777">Escolha o estilo e os ativos da marca.</text>
  <rect x="76" y="744" width="215" height="46" rx="11" fill="#171714"/><text x="95" y="772" font-family="Arial" font-size="11" font-weight="700" fill="white">Gastronomia Premium</text>
  <rect x="302" y="744" width="215" height="46" rx="11" fill="#fafafa" stroke="#ddd"/><text x="321" y="772" font-family="Arial" font-size="11" fill="#555">Experiência VIP</text>
  <rect x="528" y="744" width="249" height="46" rx="11" fill="#fafafa" stroke="#ddd"/><text x="547" y="772" font-family="Arial" font-size="11" fill="#555">Vanguarda Tech</text>
  <text x="54" y="857" font-family="Arial" font-size="10" fill="#777">AdCreative AI v1.0.0 · React · Express · Gemini · OpenRouter</text>
</svg>
